<?xml version="1.0" encoding="utf-8"?>
<!-- Generator: Adobe Illustrator 21.1.0, SVG Export Plug-In . SVG Version: 6.00 Build 0)  -->
<svg version="1.1" id="Layer_1" xmlns="http://www.w3.org/2000/svg" xmlns:xlink="http://www.w3.org/1999/xlink" x="0px" y="0px"
	 viewBox="0 0 1000 381" style="enable-background:new 0 0 1000 381;" xml:space="preserve">
<style type="text/css">
	.st0{fill:#FFFFFF;stroke:#000000;stroke-miterlimit:10;}
	.st1{fill:#FFFFFF;}
</style>
<path class="st0" d="M539.8,341.7"/>
<g>
	<path class="st1" d="M392.7,51.8h17c1.7,0,3.2,0.4,4.4,1.2c1.2,0.8,2,1.9,2.4,3.3l18.4,64.9c0.5,1.6,0.9,3.3,1.2,5.2s0.7,3.9,1.1,6
		c0.4-2.1,0.8-4.1,1.3-6c0.5-1.9,1-3.6,1.5-5.2l21.3-64.9c0.4-1.1,1.2-2.2,2.4-3.1c1.2-0.9,2.6-1.4,4.3-1.4h5.9
		c1.7,0,3.2,0.4,4.4,1.2c1.1,0.8,1.9,1.9,2.4,3.3l21.1,64.9c1.1,3.2,2,6.8,2.8,10.6c0.3-1.9,0.7-3.8,1.1-5.6c0.4-1.8,0.8-3.5,1.2-5
		l18.5-64.9c0.3-1.2,1.1-2.3,2.3-3.2s2.7-1.4,4.3-1.4h15.8l-33.7,108.5H496l-23.7-74.1c-0.3-0.9-0.6-2-0.9-3.1
		c-0.3-1.1-0.6-2.3-0.9-3.5c-0.3,1.3-0.6,2.4-0.9,3.5c-0.3,1.1-0.6,2.1-0.9,3.1l-23.9,74.1h-18.2L392.7,51.8z"/>
	<path class="st1" d="M581.2,60.9c0,1.6-0.3,3.1-1,4.5c-0.7,1.4-1.5,2.6-2.6,3.7c-1.1,1.1-2.3,1.9-3.8,2.5c-1.5,0.6-3,0.9-4.6,0.9
		c-1.6,0-3.1-0.3-4.5-0.9c-1.4-0.6-2.7-1.5-3.7-2.5c-1.1-1-1.9-2.3-2.5-3.7c-0.6-1.4-0.9-2.9-0.9-4.5c0-1.6,0.3-3.2,0.9-4.6
		c0.6-1.4,1.5-2.7,2.5-3.8c1-1.1,2.3-1.9,3.7-2.5c1.4-0.6,2.9-0.9,4.5-0.9c1.6,0,3.2,0.3,4.6,0.9c1.5,0.6,2.7,1.5,3.8,2.5
		c1.1,1,1.9,2.3,2.6,3.8C580.9,57.7,581.2,59.3,581.2,60.9z M578.4,83.3v77h-18.5v-77H578.4z"/>
	<path class="st1" d="M599.3,160.3v-77h11.3c2.4,0,4,1.1,4.7,3.4l1.3,6.1c1.5-1.6,3.2-3,4.9-4.4c1.7-1.3,3.5-2.4,5.5-3.4
		c1.9-0.9,4-1.7,6.2-2.2c2.2-0.5,4.6-0.8,7.2-0.8c4.2,0,7.9,0.7,11.2,2.1c3.3,1.4,6,3.4,8.1,6c2.2,2.6,3.8,5.7,5,9.2
		c1.1,3.6,1.7,7.5,1.7,11.8v49h-18.5v-49c0-4.7-1.1-8.3-3.3-10.9c-2.2-2.6-5.4-3.9-9.8-3.9c-3.2,0-6.2,0.7-9,2.2
		c-2.8,1.5-5.5,3.4-8,5.9v55.6H599.3z"/>
	<path class="st1" d="M738.8,160.3c-2.4,0-4-1.1-4.7-3.4l-1.5-7.4c-1.6,1.8-3.3,3.4-5,4.9c-1.8,1.5-3.6,2.7-5.7,3.8
		c-2,1-4.2,1.9-6.5,2.4s-4.8,0.9-7.5,0.9c-4.2,0-8.1-0.9-11.5-2.6c-3.5-1.7-6.5-4.3-9-7.6c-2.5-3.3-4.5-7.4-5.8-12.3
		c-1.4-4.9-2.1-10.5-2.1-16.8c0-5.7,0.8-11,2.3-15.9c1.5-4.9,3.8-9.1,6.7-12.8c2.9-3.6,6.4-6.4,10.4-8.4s8.6-3,13.7-3
		c4.3,0,8,0.7,11,2.1c3,1.4,5.8,3.2,8.2,5.5V48.8h18.5v111.5H738.8z M714.1,146.7c3.8,0,7.1-0.8,9.8-2.4c2.7-1.6,5.3-3.9,7.6-6.8
		V103c-2.1-2.6-4.4-4.4-6.9-5.4c-2.5-1-5.1-1.6-8-1.6c-2.8,0-5.3,0.5-7.6,1.6c-2.3,1.1-4.2,2.6-5.8,4.8c-1.6,2.1-2.8,4.8-3.6,8.1
		c-0.9,3.3-1.3,7.1-1.3,11.6c0,4.5,0.4,8.3,1.1,11.4c0.7,3.1,1.8,5.7,3.1,7.6c1.3,2,3,3.4,4.9,4.3
		C709.5,146.3,711.7,146.7,714.1,146.7z"/>
	<path class="st1" d="M803,82.1c5.7,0,11,0.9,15.6,2.8c4.7,1.9,8.7,4.5,12,7.9c3.3,3.4,5.9,7.6,7.7,12.5c1.8,4.9,2.7,10.4,2.7,16.4
		c0,6.1-0.9,11.6-2.7,16.5c-1.8,4.9-4.3,9.1-7.7,12.5c-3.3,3.5-7.3,6.1-12,8c-4.7,1.8-9.9,2.8-15.6,2.8c-5.8,0-11-0.9-15.7-2.8
		c-4.7-1.8-8.7-4.5-12-8c-3.3-3.4-5.9-7.6-7.7-12.5c-1.8-4.9-2.7-10.4-2.7-16.5c0-6,0.9-11.5,2.7-16.4c1.8-4.9,4.4-9,7.7-12.5
		c3.3-3.4,7.3-6,12-7.9C792,83.1,797.2,82.1,803,82.1z M803,147.2c6.4,0,11.1-2.1,14.2-6.5c3.1-4.3,4.6-10.6,4.6-18.9
		c0-8.3-1.5-14.6-4.6-19c-3.1-4.3-7.8-6.5-14.2-6.5c-6.5,0-11.3,2.2-14.4,6.6c-3.1,4.4-4.6,10.7-4.6,18.9s1.5,14.5,4.6,18.9
		C791.7,145,796.5,147.2,803,147.2z"/>
	<path class="st1" d="M846,83.3h14.7c1.4,0,2.6,0.3,3.5,1c0.9,0.7,1.5,1.5,1.8,2.5l11,41.1c0.6,2.3,1.1,4.5,1.5,6.6
		c0.4,2.2,0.7,4.3,1.1,6.4c0.5-2.1,1.1-4.3,1.8-6.4c0.6-2.1,1.3-4.4,2-6.6l12.8-41.3c0.3-1,0.9-1.8,1.8-2.5c0.9-0.6,2-1,3.2-1h8.2
		c1.3,0,2.5,0.3,3.4,1c0.9,0.7,1.5,1.5,1.8,2.5l12.6,42c0.6,2.2,1.2,4.2,1.8,6.3c0.5,2,1,4.1,1.5,6.1c0.3-2.1,0.7-4.3,1.2-6.5
		c0.4-2.1,1-4.4,1.6-6.7l11.4-41.1c0.3-1,0.8-1.8,1.8-2.5c0.9-0.6,2-1,3.3-1h14l-24.4,77h-14.9c-1.6,0-2.8-1.1-3.5-3.3L907,112.5
		c-0.5-1.4-0.9-2.9-1.2-4.4c-0.4-1.5-0.7-2.9-0.9-4.4c-0.3,1.5-0.6,3-1,4.5c-0.3,1.5-0.8,3-1.2,4.5l-14,44.3c-0.7,2.2-2.1,3.3-4,3.3
		h-14.2L846,83.3z"/>
</g>
<g>
	<path class="st1" d="M393.7,234.4h17c1.7,0,3.2,0.4,4.4,1.2c1.2,0.8,2,1.9,2.4,3.3l18.4,64.9c0.5,1.6,0.9,3.3,1.2,5.2
		s0.7,3.9,1.1,6c0.4-2.1,0.8-4.1,1.3-6c0.5-1.9,1-3.6,1.5-5.2l21.3-64.9c0.4-1.1,1.2-2.2,2.4-3.2c1.2-0.9,2.6-1.4,4.3-1.4h5.9
		c1.7,0,3.2,0.4,4.4,1.2c1.1,0.8,1.9,1.9,2.4,3.3l21.2,64.9c1.1,3.2,2,6.8,2.8,10.7c0.3-2,0.7-3.8,1.1-5.6c0.4-1.8,0.8-3.5,1.2-5
		l18.5-64.9c0.3-1.2,1.1-2.3,2.3-3.2c1.2-0.9,2.6-1.4,4.3-1.4h15.8l-33.7,108.5H497l-23.7-74.1c-0.3-0.9-0.6-2-0.9-3.1
		c-0.3-1.1-0.6-2.3-0.9-3.5c-0.3,1.3-0.6,2.4-0.9,3.5c-0.3,1.1-0.6,2.1-0.9,3.1l-23.9,74.1h-18.2L393.7,234.4z"/>
	<path class="st1" d="M582.2,243.5c0,1.6-0.3,3.1-1,4.5c-0.7,1.4-1.5,2.6-2.6,3.7c-1.1,1-2.3,1.9-3.8,2.5c-1.5,0.6-3,0.9-4.6,0.9
		c-1.6,0-3.1-0.3-4.5-0.9c-1.4-0.6-2.7-1.5-3.7-2.5c-1.1-1-1.9-2.3-2.5-3.7c-0.6-1.4-0.9-2.9-0.9-4.5c0-1.7,0.3-3.2,0.9-4.7
		c0.6-1.4,1.5-2.7,2.5-3.8c1-1,2.3-1.9,3.7-2.5s2.9-0.9,4.5-0.9c1.6,0,3.2,0.3,4.6,0.9s2.7,1.5,3.8,2.5c1.1,1.1,1.9,2.3,2.6,3.8
		C581.8,240.3,582.2,241.9,582.2,243.5z M579.4,265.9v77h-18.5v-77H579.4z"/>
	<path class="st1" d="M656,273.6c0,1.3-0.2,2.6-0.7,3.8c-0.5,1.2-1,2.3-1.7,3.1L617,328.6h38v14.3h-59.5v-7.7c0-0.8,0.2-1.9,0.6-3
		c0.4-1.2,1-2.3,1.9-3.3l36.9-48.7h-37.2v-14.2H656V273.6z"/>
	<path class="st1" d="M731,342.9h-8.3c-1.8,0-3.1-0.3-4.1-0.8c-1-0.5-1.8-1.6-2.3-3.2l-1.7-5.5c-1.9,1.8-3.9,3.3-5.7,4.6
		c-1.9,1.3-3.8,2.4-5.8,3.3c-2,0.9-4.1,1.6-6.4,2c-2.3,0.4-4.8,0.7-7.5,0.7c-3.3,0-6.3-0.4-9-1.3c-2.8-0.9-5.1-2.2-7.1-4
		c-2-1.8-3.5-3.9-4.6-6.5c-1.1-2.6-1.6-5.6-1.6-9.1c0-2.9,0.8-5.8,2.3-8.6c1.5-2.8,4.1-5.4,7.6-7.7c3.5-2.3,8.3-4.2,14.2-5.7
		c5.9-1.5,13.2-2.3,22-2.3v-4.5c0-5.2-1.1-9-3.3-11.5c-2.2-2.5-5.3-3.7-9.5-3.7c-3,0-5.5,0.4-7.5,1c-2,0.7-3.7,1.5-5.2,2.4
		c-1.5,0.9-2.8,1.7-4.1,2.4c-1.3,0.7-2.6,1-4.1,1c-1.3,0-2.3-0.3-3.2-1c-0.9-0.6-1.6-1.4-2.2-2.4l-3.4-5.9
		c8.9-8.1,19.5-12.2,32-12.2c4.5,0,8.5,0.7,12,2.2c3.5,1.5,6.5,3.5,9,6.1c2.4,2.6,4.3,5.8,5.6,9.4c1.3,3.7,1.9,7.6,1.9,12V342.9z
		 M695,331.3c1.9,0,3.6-0.2,5.3-0.5c1.6-0.3,3.1-0.9,4.5-1.6s2.8-1.5,4.1-2.5c1.3-1,2.7-2.2,4-3.6v-12.9c-5.4,0-9.9,0.3-13.5,1
		c-3.6,0.7-6.5,1.5-8.7,2.6s-3.8,2.3-4.7,3.7c-0.9,1.4-1.4,2.9-1.4,4.6c0,3.3,1,5.6,2.9,7C689.4,330.6,691.9,331.3,695,331.3z"/>
	<path class="st1" d="M749.3,342.9v-77h10.9c1.9,0,3.2,0.4,4,1c0.8,0.7,1.2,1.9,1.5,3.6l1.1,9.3c2.7-4.8,6-8.5,9.7-11.3
		c3.7-2.7,7.8-4.1,12.5-4.1c3.8,0,6.9,0.9,9.5,2.6l-2.4,13.9c-0.1,0.9-0.5,1.5-1,1.9c-0.5,0.4-1.2,0.6-2,0.6c-0.8,0-1.8-0.2-3.1-0.5
		c-1.3-0.3-3-0.5-5.2-0.5c-3.9,0-7.2,1.1-9.9,3.2c-2.8,2.1-5.1,5.2-7,9.3v47.9H749.3z"/>
	<path class="st1" d="M864.7,342.9c-2.4,0-4-1.1-4.7-3.4l-1.5-7.4c-1.6,1.8-3.3,3.4-5,4.9c-1.8,1.5-3.6,2.7-5.7,3.8
		c-2,1-4.2,1.9-6.5,2.4s-4.8,0.9-7.5,0.9c-4.2,0-8.1-0.9-11.5-2.6c-3.5-1.8-6.5-4.3-9-7.6c-2.5-3.3-4.5-7.4-5.8-12.3
		c-1.4-4.9-2.1-10.5-2.1-16.8c0-5.7,0.8-11,2.3-15.9c1.5-4.9,3.8-9.1,6.7-12.8c2.9-3.6,6.4-6.4,10.4-8.4c4-2,8.6-3,13.7-3
		c4.3,0,8,0.7,11,2.1c3,1.4,5.8,3.2,8.2,5.5v-40.7H876v111.5H864.7z M840,329.3c3.8,0,7.1-0.8,9.8-2.4c2.7-1.6,5.3-3.9,7.6-6.8
		v-34.5c-2.1-2.5-4.4-4.4-6.9-5.4c-2.5-1-5.1-1.6-8-1.6c-2.8,0-5.3,0.5-7.6,1.6c-2.3,1-4.2,2.6-5.8,4.8c-1.6,2.1-2.8,4.8-3.6,8.1
		c-0.9,3.3-1.3,7.1-1.3,11.6c0,4.5,0.4,8.3,1.1,11.4c0.7,3.1,1.8,5.7,3.1,7.7c1.3,2,3,3.4,4.9,4.3
		C835.4,328.9,837.6,329.3,840,329.3z"/>
</g>
<path class="st1" d="M60,21v326l22-30l86-137l35,42l97.2-176H347V21H60z M198,175l-33-39L82,276.8V46h189.8L198,175z"/>
<path class="st1" d="M319,77L203,278l-35-44L91,347l-22,28h276V77H319z M123.8,347l46.2-68l33,39l116-191.2V347H123.8z"/>
</svg>
