<?xml version="1.0" encoding="utf-8"?>
<!-- Generator: Adobe Illustrator 21.1.0, SVG Export Plug-In . SVG Version: 6.00 Build 0)  -->
<svg version="1.1" id="Layer_1" xmlns="http://www.w3.org/2000/svg" xmlns:xlink="http://www.w3.org/1999/xlink" x="0px" y="0px"
	 viewBox="0 0 500 500" style="enable-background:new 0 0 500 500;" xml:space="preserve">
<style type="text/css">
	.st0{display:none;fill:#0000B9;}
	.st1{fill:#FFFFFF;}
</style>
<rect class="st0" width="500" height="500"/>
<path class="st1" d="M500,0H175.4c0,0,0,0.1,0,0.2H156l23.8,17.7c1.9,6.7,4.6,14.9,8.2,24.3l-14.4,21.9l24.1,1
	c4.8,10.2,10.5,21,17.3,32.2L205,122l24-3.7c4.4,6,9,12,14.1,17.9l-6.5,36.3l30.1-11.4c5.5,5.1,11.3,10.2,17.5,15.1l3,43.4
	l29.9-20.8c5.3,3.1,10.8,6.2,16.4,9.1l11,47.4l30.8-29.8c4.5,1.5,9.1,3,13.8,4.3l13,42.6l29.5-32.6l-3.3-1
	c4.1,0.7,16.3,3.3,20.5,3.9l24.9,41.4l20.1-37.7c4.6,0.1,1.3-1.8,6-1.8V0z M483,14.5v207c-248.5-0.3-286-207-286-207H483z"/>
</svg>
