<?xml version="1.0" encoding="utf-8"?>
<!-- Generator: Adobe Illustrator 21.1.0, SVG Export Plug-In . SVG Version: 6.00 Build 0)  -->
<svg version="1.1" id="Layer_1" xmlns="http://www.w3.org/2000/svg" xmlns:xlink="http://www.w3.org/1999/xlink" x="0px" y="0px"
	 viewBox="0 0 219 284" style="enable-background:new 0 0 219 284;" xml:space="preserve">
<style type="text/css">
	.st0{fill:#FFFFFF;stroke:#FFFFFF;stroke-miterlimit:10;}
	.st1{fill:none;stroke:#FFFFFF;stroke-miterlimit:10;}
</style>
<rect x="48" y="135" class="st0" width="6" height="149"/>
<path class="st0" d="M51.5,9C29.1,9,11,38.8,11,75.5S29.1,142,51.5,142S92,112.2,92,75.5S73.9,9,51.5,9z M51.5,132.1
	c-19.1,0-34.5-25.4-34.5-56.6c0-31.3,15.4-56.6,34.5-56.6S86,44.2,86,75.5C86,106.8,70.6,132.1,51.5,132.1z"/>
<line class="st0" x1="15.5" y1="66.5" x2="64.5" y2="127.5"/>
<line class="st0" x1="18.5" y1="91.5" x2="51.5" y2="132.5"/>
<line class="st0" x1="19.5" y1="53.5" x2="75.5" y2="120.5"/>
<line class="st0" x1="25.5" y1="37.5" x2="82.5" y2="107.5"/>
<line class="st0" x1="35.5" y1="25.5" x2="85.5" y2="85.5"/>
<line class="st0" x1="51.5" y1="18.5" x2="84.5" y2="59.5"/>
<line class="st1" x1="-180.5" y1="-148.5" x2="-178.5" y2="-147.5"/>
<path class="st0" d="M52,9c0,0,112.6,7.3,155.8,51.5c7.5,7.7,6.7,20.2-1.8,26.8c-22.3,17.3-73.4,48.9-154,54.7l16-10
	c0,0,83.3-17.6,123-47.8c7.5-5.7,7.3-17-0.3-22.4C173.6,49.5,135.2,30.2,55,19.1L52,9z"/>
</svg>
